# xmcd
#
# Track frame offsets: 
#        150
#        18040
#        35970
#        54305
#        71147
#        89222
#        102627
#        119077
#        136085
#        153947
#        170197
#        186050
#
# Disc length: 2665 seconds
#
# Revision: 0
# Processed by: cddbd v1.5.1PL2 Copyright (c) Steve Scherf et al.
# Submitted via: ExactAudioCopy v0.95b4
#
DISCID=b00a670c
DTITLE=เวอร์ชั่น 1 - รวมเพลงฮิต  จากมิวสิควีดีโอ
DYEAR=2000
DGENRE=Country
TTITLE0=กลัว
TTITLE1=อย่ากลัว
TTITLE2=จดหมายฉบับสุดท้าย
TTITLE3=อักอ้ายโจงโปง
TTITLE4=เก็บไถขึ้นลาน
TTITLE5=พ่อแง่แม่งอน 
TTITLE6=นางสาวเฮเลน
TTITLE7=นี่หรือชีวิต
TTITLE8=คิดถึงจังเลย
TTITLE9=ยังรักเสมอ
TTITLE10=คนดีของฉัน
TTITLE11=สิบสามปีอยากมีรัก
EXTD=
EXTT0=
EXTT1=
EXTT2=
EXTT3=
EXTT4=
EXTT5=
EXTT6=
EXTT7=
EXTT8=
EXTT9=
EXTT10=
EXTT11=
PLAYORDER=
